<?xml version="1.0" encoding="UTF-8"?>
<!DOCTYPE svg PUBLIC "-//W3C//DTD SVG 1.1//EN" "http://www.w3.org/Graphics/SVG/1.1/DTD/svg11.dtd">
<!-- Creator: CorelDRAW 2020 (64-Bit) -->
<svg xmlns="http://www.w3.org/2000/svg" xml:space="preserve" width="50mm" height="50mm" version="1.1" style="shape-rendering:geometricPrecision; text-rendering:geometricPrecision; image-rendering:optimizeQuality; fill-rule:evenodd; clip-rule:evenodd"
viewBox="0 0 5000 5000"
 xmlns:xlink="http://www.w3.org/1999/xlink"
 xmlns:xodm="http://www.corel.com/coreldraw/odm/2003">
 <defs>
  <style type="text/css">
   <![CDATA[
    .fil6 {fill:#472B29;fill-rule:nonzero}
    .fil0 {fill:#78A0CF;fill-rule:nonzero}
    .fil2 {fill:#CEE1F4;fill-rule:nonzero}
    .fil5 {fill:#EF9922;fill-rule:nonzero}
    .fil1 {fill:#F1BC19;fill-rule:nonzero}
    .fil3 {fill:#FBCD59;fill-rule:nonzero}
    .fil7 {fill:#FFFEF4;fill-rule:nonzero}
    .fil4 {fill:white;fill-rule:nonzero}
   ]]>
  </style>
 </defs>
 <g id="Слой_x0020_1">
  <metadata id="CorelCorpID_0Corel-Layer"/>
  <path class="fil0" d="M159.58 945.95c-74.59,0 -135.11,60.51 -135.11,135.13 0,74.62 60.52,135.14 135.14,135.14 74.62,0 135.14,-60.52 135.14,-135.14 0,-74.62 -60.52,-135.13 -135.14,-135.13l-0.03 0z"/>
  <path class="fil1" d="M4111.53 198.44c-37.35,0 -67.59,30.24 -67.59,67.57 0,37.32 30.24,67.57 67.56,67.57 37.33,0 67.57,-30.25 67.57,-67.57 0,-37.33 -30.24,-67.57 -67.57,-67.57l0.03 0z"/>
  <path class="fil2" d="M2500 -0.01c-1380.47,0 -2500,1119.53 -2500,2500.03 0,1380.44 1119.53,2499.97 2500,2499.97 1380.47,0 2500,-1119.53 2500,-2499.97 0,-1380.5 -1119.53,-2500.03 -2500,-2500.03z"/>
  <path class="fil1" d="M4516.94 130.87c-149.26,0 -270.3,121.04 -270.3,270.27 0,149.24 121.04,270.28 270.27,270.28 149.24,0 270.28,-121.04 270.28,-270.28 0,-149.23 -121.04,-270.27 -270.28,-270.27l0.03 0z"/>
  <path class="fil0" d="M4787.21 874.12c-74.64,0 -135.16,60.52 -135.16,135.14 0,74.62 60.52,135.13 135.14,135.13 74.61,0 135.13,-60.51 135.13,-135.13 0,-74.62 -60.52,-135.14 -135.13,-135.14l0.02 0z"/>
  <path class="fil3" d="M4807.43 4121.66c-74.64,-0.06 -135.16,60.46 -135.16,135.08 0,74.62 60.52,135.14 135.13,135.14 74.62,0 135.14,-60.52 135.14,-135.14 0,-74.62 -60.52,-135.14 -135.14,-135.14l0.03 0.06zm-4459.51 -1013.53c-149.21,-0.05 -270.24,120.99 -270.24,270.22 0,149.24 121.03,270.27 270.27,270.27 149.24,0 270.27,-121.03 270.27,-270.27 0,-149.23 -121.03,-270.27 -270.27,-270.27l-0.03 0.05z"/>
  <path class="fil0" d="M810.79 4678.69c-74.59,-0.05 -135.11,60.47 -135.11,135.09 0,74.62 60.52,135.13 135.14,135.13 74.62,0 135.14,-60.51 135.14,-135.13 0,-74.62 -60.52,-135.14 -135.14,-135.14l-0.03 0.05z"/>
  <path class="fil4" d="M371.6 2567.58c-93.24,-0.05 -168.9,75.61 -168.9,168.87 0,93.27 75.66,168.92 168.93,168.92 93.26,0 168.92,-75.65 168.92,-168.92 0,-93.26 -75.66,-168.92 -168.92,-168.92l-0.03 0.05z"/>
  <path class="fil1" d="M540.52 3581.11c-37.3,-0.05 -67.54,30.19 -67.54,67.51 0,37.33 30.24,67.57 67.57,67.57 37.32,0 67.56,-30.24 67.56,-67.57 0,-37.32 -30.24,-67.56 -67.56,-67.56l-0.03 0.05z"/>
  <path class="fil4" d="M4527.05 1351.36c-37.35,0 -67.6,30.24 -67.6,67.56 0,37.33 30.25,67.57 67.57,67.57 37.32,0 67.57,-30.24 67.57,-67.57 0,-37.32 -30.25,-67.56 -67.57,-67.56l0.03 0z"/>
  <g id="_1590320965152">
   <path class="fil5" d="M1281.17 4312.01c-327.07,0 -593.17,-266.03 -593.17,-593.16l0 -2437.66c0,-327.07 266.04,-593.17 593.17,-593.17l2437.66 0c327.07,0 593.17,266.03 593.17,593.17l0 2437.66c0,327.07 -266.04,593.16 -593.17,593.16l-2437.66 0z"/>
   <g>
    <path class="fil6" d="M3718.83 744.9c295.69,0 536.29,240.6 536.29,536.29l0 2437.66c0,295.68 -240.6,536.28 -536.29,536.28l-2437.66 0c-295.69,0 -536.29,-240.6 -536.29,-536.28l0 -2437.66c0,-295.69 240.6,-536.29 536.29,-536.29l2437.66 0 0 0zm0 -113.76l-2437.66 0c-357.53,0 -650.04,292.52 -650.04,650.05l0 2437.66c0,357.52 292.51,650.04 650.04,650.04l2437.66 0c357.53,0 650.04,-292.52 650.04,-650.04l0 -2437.66c0,-357.53 -292.51,-650.05 -650.04,-650.05l0 0z"/>
   </g>
  </g>
  <g>
   <path class="fil7" d="M4003.23 2327.36l0 142.2 0 1168.03c0,201.13 -164.56,365.65 -365.65,365.65l-2275.16 0c-201.12,0 -365.65,-164.56 -365.65,-365.65l0 -2275.15c0,-201.12 164.56,-365.65 365.65,-365.65l2061.88 0 213.28 0c201.12,0 365.65,164.56 365.65,365.65l0 274.25 0 162.51 0 81.26 0 91.4 0 233.62 0 121.88z"/>
  </g>
  <g>
   <path class="fil6" d="M4003.23 2286.74c-22.43,0 -40.63,-18.21 -40.63,-40.63l0 -314.88c0,-22.43 18.2,-40.63 40.63,-40.63 22.42,0 40.62,18.2 40.62,40.63l0 314.88c0,22.42 -18.2,40.63 -40.62,40.63z"/>
  </g>
  <g>
   <path class="fil6" d="M4003.23 1728.09c-22.43,0 -40.63,-18.2 -40.63,-40.63l0 -162.51c0,-22.42 18.2,-40.63 40.63,-40.63 22.42,0 40.62,18.21 40.62,40.63l0 162.51c0,22.43 -18.2,40.63 -40.62,40.63z"/>
  </g>
  <g>
   <path class="fil6" d="M3637.58 4043.87l-2275.16 0c-224.02,0 -406.27,-182.25 -406.27,-406.28l0 -2275.15c0,-224.03 182.25,-406.28 406.27,-406.28l2061.88 0c22.42,0 40.62,18.21 40.62,40.63 0,22.43 -18.2,40.63 -40.62,40.63l-2061.88 0c-179.24,0 -325.02,145.78 -325.02,325.02l0 2275.15c0,179.24 145.78,325.02 325.02,325.02l2275.16 0c179.24,0 325.02,-145.78 325.02,-325.02l0 -1168.06c0,-22.43 18.2,-40.63 40.63,-40.63 22.42,0 40.62,18.2 40.62,40.63l0 1168.06c0,224.03 -182.25,406.28 -406.27,406.28z"/>
  </g>
  <g>
   <path class="fil5" d="M1415.02 3540.68c-221.95,-221.95 -236.92,-568.01 -33.32,-771.49l330.68 -330.68c203.48,-203.48 549.66,-188.63 771.49,33.24 221.96,221.96 236.92,568.02 33.25,771.49l-330.69 330.69c-203.39,203.68 -549.45,188.71 -771.41,-33.25zm890 -889.78c-114.25,-114.25 -292.5,-122.06 -397.38,-17.14l-330.69 330.69c-104.68,104.68 -97.12,283.05 17.13,397.38 114.25,114.25 292.5,122.06 397.38,17.13l330.69 -330.69c104.68,-105 97.11,-283.12 -17.13,-397.37z"/>
   <path class="fil6" d="M1831.91 3769.26c-8.84,0 -17.55,-0.2 -26.5,-0.53 -158.82,-6.87 -310.57,-74.87 -427.07,-191.41 -242.11,-242.11 -257.16,-621.09 -33.32,-845.01l330.68 -330.69c223.84,-223.83 603.02,-208.74 845.02,33.25 242.11,242.11 257.08,621.21 33.24,845.01l-330.69 330.69c-102.92,102.96 -240.97,158.69 -391.36,158.69zm235.57 -1422.27c-118.09,0 -232.55,42.28 -318.46,128.16l-330.69 330.68c-183.23,183.32 -168.26,496.46 33.33,698.17 98.06,98.06 225.27,155.27 358.12,161.12 132.45,6.13 251.97,-39.79 339.85,-127.75l330.68 -330.68c183.32,-183.32 168.35,-496.46 -33.24,-698.18 -107.05,-107.21 -245.59,-161.52 -379.59,-161.52zm-258.92 1157.55c-89.1,0 -180.62,-35.62 -251.16,-106.03 -134.49,-134.49 -142.17,-345.66 -17.13,-470.7l330.69 -330.69c61.17,-61.09 143.65,-93.68 234.1,-88.69 88.16,3.72 172.19,41.34 236.59,105.95l0 0 0 0c134.49,134.49 142.1,345.57 17.14,470.7l-330.69 330.68c-59.5,59.29 -138.54,88.78 -219.54,88.78zm281.86 -892.82c-56.51,0 -108.03,20.65 -146.02,58.68l-330.69 330.69c-84.56,84.56 -76.87,229.84 17.14,323.85 94.09,94.09 239.41,101.78 323.85,17.14l330.69 -330.69c84.44,-84.56 76.75,-229.85 -17.14,-323.86l0 0c-46,-46 -105.62,-72.9 -167.65,-75.6 -3.43,-0.09 -6.83,-0.21 -10.18,-0.21z"/>
  </g>
  <g>
   <path class="fil5" d="M2508.57 2447.22c-221.96,-221.96 -236.92,-568.02 -33.24,-771.49l330.68 -330.69c203.48,-203.47 549.66,-188.63 771.49,33.25 221.96,221.95 236.92,568.01 33.25,771.49l-330.69 330.68c-203.43,203.56 -549.53,188.59 -771.49,-33.24zm890.03 -890c-114.25,-114.24 -292.49,-122.05 -397.37,-17.13l-330.69 330.69c-104.89,104.88 -97.12,283.04 17.13,397.38 114.25,114.25 292.5,122.06 397.38,17.13l330.69 -330.69c104.68,-104.92 97.11,-283.04 -17.14,-397.38z"/>
   <path class="fil6" d="M2925.5 2675.8c-8.71,0 -17.55,-0.21 -26.5,-0.62 -158.82,-6.74 -310.57,-74.78 -427.07,-191.32l0 0c-116.54,-116.54 -184.46,-268.29 -191.41,-427.07 -6.87,-160.66 49.23,-309.01 158.09,-417.74l330.68 -330.81c223.72,-223.63 602.74,-208.87 845.01,33.24 116.54,116.54 184.46,268.29 191.42,427.19 6.86,160.58 -49.36,309.02 -158.09,417.74l-330.81 330.69c-102.8,102.92 -240.93,158.7 -391.32,158.7zm-380.13 -265.34c98.06,98.05 225.39,155.26 358.13,160.98 130.03,6.55 251.97,-39.58 339.84,-127.66l330.81 -330.68c88.08,-88.08 133.34,-208.75 127.74,-339.85 -5.8,-132.85 -62.93,-260.19 -161.11,-358.2 -201.59,-201.6 -514.94,-216.56 -698.17,-33.25l-330.69 330.81c-88.08,88.08 -133.46,208.75 -127.74,339.85 5.89,132.61 63.01,259.94 161.19,358l0 0zm356.65 0.49c-89.1,0 -180.61,-35.62 -251.03,-106.03 -134.49,-134.49 -142.17,-345.65 -17.25,-470.82l330.81 -330.69c125.04,-125.04 336.08,-117.48 470.69,17.14 134.49,134.49 142.18,345.65 17.14,470.69l-330.69 330.81c-59.5,59.54 -138.54,88.9 -219.67,88.9zm282.11 -892.78c-54.3,0 -106.77,19.43 -146.14,58.68l-330.81 330.69c-84.44,84.56 -76.75,229.97 17.25,323.94 93.81,93.88 239.3,101.57 323.86,17.13l330.69 -330.81c84.56,-84.56 76.87,-229.85 -17.14,-323.86 -50.29,-50.25 -115.19,-75.77 -177.71,-75.77z"/>
  </g>
  <g>
   <path class="fil5" d="M2094.26 2861.61c-53.89,-53.9 -57.86,-137.31 -8.83,-186.34l649.35 -649.35c49.03,-49.03 132.32,-44.98 186.34,8.83 53.89,53.89 57.86,137.31 8.83,186.34l-649.35 649.35c-49.03,49.03 -132.52,44.98 -186.34,-8.83z"/>
   <path class="fil6" d="M2195.55 2956.56c-49.11,0 -99.28,-19.55 -137.93,-58.27 -74.05,-74.06 -78.1,-190.6 -8.91,-259.87l649.47 -649.35c34.06,-34.18 79.86,-50.78 130.57,-49.43 48.09,2.29 93.88,23.06 129.21,58.27 37.09,37.09 58.48,87.46 58.48,138.13 -0.13,46.53 -17.67,89.75 -49.64,121.61l-649.35 649.47c-33.21,33.12 -77.12,49.44 -121.9,49.44zm624.2 -913.18c-18.89,0 -35.94,6.66 -48.29,19.22l-649.47 649.35c-28.59,28.66 -24.62,79.45 8.91,113.02 33.45,33.53 84.32,37.58 112.9,8.83l649.35 -649.47c12.35,-12.27 19.22,-29.4 19.22,-48.29 0,-23.27 -10.26,-46.86 -28.05,-64.61 -16.93,-16.93 -38.52,-26.78 -60.77,-27.93 -1.18,0 -2.53,-0.12 -3.8,-0.12z"/>
  </g>
 </g>
</svg>
